{
    "asset" : {
        "generator" : "Khronos glTF Blender I/O v3.3.32",
        "version" : "2.0"
    },
    "scene" : 0,
    "scenes" : [
        {
            "name" : "Scene",
            "nodes" : [
                6,
                7
            ]
        }
    ],
    "nodes" : [
        {
            "name" : "A_0",
            "rotation" : [
                0,
                -0.01027228869497776,
                0,
                0.9999472498893738
            ]
        },
        {
            "name" : "B_1",
            "rotation" : [
                0,
                -0.014677568338811398,
                0,
                0.9998922944068909
            ],
            "translation" : [
                0.9450557231903076,
                0,
                0
            ]
        },
        {
            "name" : "C_2",
            "scale" : [
                1.0399718284606934,
                1.0399718284606934,
                1.0399718284606934
            ],
            "translation" : [
                1.871013879776001,
                0,
                0
            ]
        },
        {
            "name" : "D_5",
            "translation" : [
                2.4804325103759766,
                0,
                0
            ]
        },
        {
            "children" : [
                0,
                1,
                2,
                3
            ],
            "name" : "GLTF_SceneRootNode",
            "rotation" : [
                0.7071068286895752,
                0,
                0,
                0.7071067094802856
            ]
        },
        {
            "children" : [
                4
            ],
            "name" : "root"
        },
        {
            "children" : [
                5
            ],
            "name" : "Sketchfab_model",
            "rotation" : [
                -0.7071068286895752,
                0,
                0,
                0.7071067094802856
            ]
        },
        {
            "mesh" : 0,
            "name" : "Object_28",
            "rotation" : [
                0.6940604448318481,
                0.017862370237708092,
                0.015901921316981316,
                0.7195194363594055
            ],
            "translation" : [
                0.020254790782928467,
                -0.41508805751800537,
                0.09651805460453033
            ]
        }
    ],
    "materials" : [
        {
            "doubleSided" : true,
            "name" : "Beige_Bubble_Letter_Material",
            "pbrMetallicRoughness" : {
                "baseColorFactor" : [
                    0.800000011920929,
                    0.48225200176239014,
                    0.21783900260925293,
                    1
                ],
                "metallicFactor" : 0,
                "roughnessFactor" : 0.20000000298023224
            }
        }
    ],
    "meshes" : [
        {
            "name" : "Object_12",
            "primitives" : [
                {
                    "attributes" : {
                        "POSITION" : 0,
                        "NORMAL" : 1,
                        "TEXCOORD_0" : 2
                    },
                    "indices" : 3,
                    "material" : 0
                }
            ]
        }
    ],
    "accessors" : [
        {
            "bufferView" : 0,
            "componentType" : 5126,
            "count" : 1467,
            "max" : [
                0.44280457496643066,
                0.25459927320480347,
                0.00463491678237915
            ],
            "min" : [
                -0.4912557303905487,
                -0.2335343062877655,
                -0.9812020063400269
            ],
            "type" : "VEC3"
        },
        {
            "bufferView" : 1,
            "componentType" : 5126,
            "count" : 1467,
            "type" : "VEC3"
        },
        {
            "bufferView" : 2,
            "componentType" : 5126,
            "count" : 1467,
            "type" : "VEC2"
        },
        {
            "bufferView" : 3,
            "componentType" : 5123,
            "count" : 4368,
            "type" : "SCALAR"
        }
    ],
    "bufferViews" : [
        {
            "buffer" : 0,
            "byteLength" : 17604,
            "byteOffset" : 0,
            "target" : 34962
        },
        {
            "buffer" : 0,
            "byteLength" : 17604,
            "byteOffset" : 17604,
            "target" : 34962
        },
        {
            "buffer" : 0,
            "byteLength" : 11736,
            "byteOffset" : 35208,
            "target" : 34962
        },
        {
            "buffer" : 0,
            "byteLength" : 8736,
            "byteOffset" : 46944,
            "target" : 34963
        }
    ],
    "buffers" : [
        {
            "byteLength" : 55680,
            "uri" : "data:application/octet-stream;base64,"
        }
    ]
}
