{
    "asset" : {
        "generator" : "Khronos glTF Blender I/O v3.3.32",
        "version" : "2.0"
    },
    "scene" : 0,
    "scenes" : [
        {
            "name" : "Scene",
            "nodes" : [
                4,
                5
            ]
        }
    ],
    "nodes" : [
        {
            "name" : "A_0",
            "rotation" : [
                0,
                -0.01027228869497776,
                0,
                0.9999472498893738
            ]
        },
        {
            "name" : "B_1",
            "rotation" : [
                0,
                -0.014677568338811398,
                0,
                0.9998922944068909
            ],
            "translation" : [
                0.9450557231903076,
                0,
                0
            ]
        },
        {
            "children" : [
                0,
                1
            ],
            "name" : "GLTF_SceneRootNode",
            "rotation" : [
                0.7071068286895752,
                0,
                0,
                0.7071067094802856
            ]
        },
        {
            "children" : [
                2
            ],
            "name" : "root"
        },
        {
            "children" : [
                3
            ],
            "name" : "Sketchfab_model",
            "rotation" : [
                -0.7071068286895752,
                0,
                0,
                0.7071067094802856
            ]
        },
        {
            "mesh" : 0,
            "name" : "Object_8",
            "rotation" : [
                0.7221457958221436,
                0,
                0,
                0.691740870475769
            ],
            "translation" : [
                0.06990718841552734,
                -0.3825599253177643,
                0
            ]
        }
    ],
    "materials" : [
        {
            "doubleSided" : true,
            "name" : "Green_Bubble_Letter_Material",
            "pbrMetallicRoughness" : {
                "baseColorFactor" : [
                    0.02420469932258129,
                    0.800000011920929,
                    0,
                    1
                ],
                "metallicFactor" : 0,
                "roughnessFactor" : 0.5
            }
        }
    ],
    "meshes" : [
        {
            "name" : "Object_2",
            "primitives" : [
                {
                    "attributes" : {
                        "POSITION" : 0,
                        "NORMAL" : 1,
                        "TEXCOORD_0" : 2
                    },
                    "indices" : 3,
                    "material" : 0
                }
            ]
        }
    ],
    "accessors" : [
        {
            "bufferView" : 0,
            "componentType" : 5126,
            "count" : 1232,
            "max" : [
                0.25354745984077454,
                0.22516842186450958,
                -0.003071682993322611
            ],
            "min" : [
                -0.4984508454799652,
                -0.22335726022720337,
                -0.9287976622581482
            ],
            "type" : "VEC3"
        },
        {
            "bufferView" : 1,
            "componentType" : 5126,
            "count" : 1232,
            "type" : "VEC3"
        },
        {
            "bufferView" : 2,
            "componentType" : 5126,
            "count" : 1232,
            "type" : "VEC2"
        },
        {
            "bufferView" : 3,
            "componentType" : 5123,
            "count" : 3360,
            "type" : "SCALAR"
        }
    ],
    "bufferViews" : [
        {
            "buffer" : 0,
            "byteLength" : 14784,
            "byteOffset" : 0,
            "target" : 34962
        },
        {
            "buffer" : 0,
            "byteLength" : 14784,
            "byteOffset" : 14784,
            "target" : 34962
        },
        {
            "buffer" : 0,
            "byteLength" : 9856,
            "byteOffset" : 29568,
            "target" : 34962
        },
        {
            "buffer" : 0,
            "byteLength" : 6720,
            "byteOffset" : 39424,
            "target" : 34963
        }
    ],
    "buffers" : [
        {
            "byteLength" : 46144,
            "uri" : "data:application/octet-stream;base64,"
        }
    ]
}
