{
    "asset" : {
        "generator" : "Khronos glTF Blender I/O v3.3.32",
        "version" : "2.0"
    },
    "scene" : 0,
    "scenes" : [
        {
            "name" : "Scene",
            "nodes" : [
                0
            ]
        }
    ],
    "nodes" : [
        {
            "mesh" : 0,
            "name" : "Object_46",
            "rotation" : [
                0.7061469554901123,
                0,
                0,
                0.7080653309822083
            ],
            "scale" : [
                1.11461341381073,
                1.1146135330200195,
                1.1146135330200195
            ],
            "translation" : [
                -0.0014772415161132812,
                -0.42662960290908813,
                0.023230187594890594
            ]
        }
    ],
    "materials" : [
        {
            "doubleSided" : true,
            "name" : "Dark_Orange_Bubble_Letter_Material",
            "pbrMetallicRoughness" : {
                "baseColorFactor" : [
                    0.27382999658584595,
                    0.05025029927492142,
                    0.0009544260101392865,
                    1
                ],
                "metallicFactor" : 0,
                "roughnessFactor" : 0.20000000298023224
            }
        }
    ],
    "meshes" : [
        {
            "name" : "Object_21",
            "primitives" : [
                {
                    "attributes" : {
                        "POSITION" : 0,
                        "NORMAL" : 1,
                        "TEXCOORD_0" : 2
                    },
                    "indices" : 3,
                    "material" : 0
                }
            ]
        }
    ],
    "accessors" : [
        {
            "bufferView" : 0,
            "componentType" : 5126,
            "count" : 486,
            "max" : [
                0.5107535719871521,
                0.1915241777896881,
                0.006055355072021484
            ],
            "min" : [
                -0.34842443466186523,
                -0.19152414798736572,
                -0.7791615724563599
            ],
            "type" : "VEC3"
        },
        {
            "bufferView" : 1,
            "componentType" : 5126,
            "count" : 486,
            "type" : "VEC3"
        },
        {
            "bufferView" : 2,
            "componentType" : 5126,
            "count" : 486,
            "type" : "VEC2"
        },
        {
            "bufferView" : 3,
            "componentType" : 5123,
            "count" : 1488,
            "type" : "SCALAR"
        }
    ],
    "bufferViews" : [
        {
            "buffer" : 0,
            "byteLength" : 5832,
            "byteOffset" : 0,
            "target" : 34962
        },
        {
            "buffer" : 0,
            "byteLength" : 5832,
            "byteOffset" : 5832,
            "target" : 34962
        },
        {
            "buffer" : 0,
            "byteLength" : 3888,
            "byteOffset" : 11664,
            "target" : 34962
        },
        {
            "buffer" : 0,
            "byteLength" : 2976,
            "byteOffset" : 15552,
            "target" : 34963
        }
    ],
    "buffers" : [
        {
            "byteLength" : 18528,
            "uri" : "data:application/octet-stream;base64,"
        }
    ]
}
