{
    "asset" : {
        "generator" : "Khronos glTF Blender I/O v3.3.32",
        "version" : "2.0"
    },
    "scene" : 0,
    "scenes" : [
        {
            "name" : "Scene",
            "nodes" : [
                0
            ]
        }
    ],
    "nodes" : [
        {
            "mesh" : 0,
            "name" : "Object_44",
            "rotation" : [
                0.7061469554901123,
                0,
                0,
                0.7080653309822083
            ],
            "scale" : [
                1.0871515274047852,
                1.0871516466140747,
                1.0871516466140747
            ],
            "translation" : [
                0.033417701721191406,
                -0.4266301393508911,
                0.02303723618388176
            ]
        }
    ],
    "materials" : [
        {
            "doubleSided" : true,
            "name" : "Dark_Brown_Bubble_Letter_Material",
            "pbrMetallicRoughness" : {
                "baseColorFactor" : [
                    0.06997759640216827,
                    0.013647099956870079,
                    0,
                    1
                ],
                "metallicFactor" : 0,
                "roughnessFactor" : 0.20000000298023224
            }
        }
    ],
    "meshes" : [
        {
            "name" : "Object_20",
            "primitives" : [
                {
                    "attributes" : {
                        "POSITION" : 0,
                        "NORMAL" : 1,
                        "TEXCOORD_0" : 2
                    },
                    "indices" : 3,
                    "material" : 0
                }
            ]
        }
    ],
    "accessors" : [
        {
            "bufferView" : 0,
            "componentType" : 5126,
            "count" : 1301,
            "max" : [
                0.42840299010276794,
                0.21068637073040009,
                -0.003543555736541748
            ],
            "min" : [
                -0.5131038427352905,
                -0.21068671345710754,
                -0.8607586026191711
            ],
            "type" : "VEC3"
        },
        {
            "bufferView" : 1,
            "componentType" : 5126,
            "count" : 1301,
            "type" : "VEC3"
        },
        {
            "bufferView" : 2,
            "componentType" : 5126,
            "count" : 1301,
            "type" : "VEC2"
        },
        {
            "bufferView" : 3,
            "componentType" : 5123,
            "count" : 3360,
            "type" : "SCALAR"
        }
    ],
    "bufferViews" : [
        {
            "buffer" : 0,
            "byteLength" : 15612,
            "byteOffset" : 0,
            "target" : 34962
        },
        {
            "buffer" : 0,
            "byteLength" : 15612,
            "byteOffset" : 15612,
            "target" : 34962
        },
        {
            "buffer" : 0,
            "byteLength" : 10408,
            "byteOffset" : 31224,
            "target" : 34962
        },
        {
            "buffer" : 0,
            "byteLength" : 6720,
            "byteOffset" : 41632,
            "target" : 34963
        }
    ],
    "buffers" : [
        {
            "byteLength" : 48352,
            "uri" : "data:application/octet-stream;base64,"
        }
    ]
}
