{
    "asset" : {
        "generator" : "Khronos glTF Blender I/O v3.3.32",
        "version" : "2.0"
    },
    "scene" : 0,
    "scenes" : [
        {
            "name" : "Scene",
            "nodes" : [
                4
            ]
        }
    ],
    "nodes" : [
        {
            "mesh" : 0,
            "name" : "Object_4",
            "rotation" : [
                0.7011970281600952,
                0,
                -0.014408078975975513,
                0.7128219604492188
            ],
            "translation" : [
                0,
                -0.41330888867378235,
                0
            ]
        },
        {
            "children" : [
                0
            ],
            "name" : "A_0",
            "rotation" : [
                0,
                -0.01027228869497776,
                0,
                0.9999472498893738
            ]
        },
        {
            "children" : [
                1
            ],
            "name" : "GLTF_SceneRootNode",
            "rotation" : [
                0.7071068286895752,
                0,
                0,
                0.7071067094802856
            ]
        },
        {
            "children" : [
                2
            ],
            "name" : "root"
        },
        {
            "children" : [
                3
            ],
            "name" : "Sketchfab_model",
            "rotation" : [
                -0.7071068286895752,
                0,
                0,
                0.7071067094802856
            ]
        }
    ],
    "materials" : [
        {
            "doubleSided" : true,
            "name" : "Red_Bubble_Letter_Material",
            "pbrMetallicRoughness" : {
                "baseColorFactor" : [
                    0.800000011920929,
                    0,
                    0.0015221999492496252,
                    1
                ],
                "metallicFactor" : 0,
                "roughnessFactor" : 0.20000000298023224
            }
        }
    ],
    "meshes" : [
        {
            "name" : "Object_0",
            "primitives" : [
                {
                    "attributes" : {
                        "POSITION" : 0,
                        "NORMAL" : 1,
                        "TEXCOORD_0" : 2
                    },
                    "indices" : 3,
                    "material" : 0
                }
            ]
        }
    ],
    "accessors" : [
        {
            "bufferView" : 0,
            "componentType" : 5126,
            "count" : 1158,
            "max" : [
                0.5179908871650696,
                0.24217356741428375,
                0.004246213473379612
            ],
            "min" : [
                -0.49590662121772766,
                -0.24012693762779236,
                -1.0114035606384277
            ],
            "type" : "VEC3"
        },
        {
            "bufferView" : 1,
            "componentType" : 5126,
            "count" : 1158,
            "type" : "VEC3"
        },
        {
            "bufferView" : 2,
            "componentType" : 5126,
            "count" : 1158,
            "type" : "VEC2"
        },
        {
            "bufferView" : 3,
            "componentType" : 5123,
            "count" : 4416,
            "type" : "SCALAR"
        }
    ],
    "bufferViews" : [
        {
            "buffer" : 0,
            "byteLength" : 13896,
            "byteOffset" : 0,
            "target" : 34962
        },
        {
            "buffer" : 0,
            "byteLength" : 13896,
            "byteOffset" : 13896,
            "target" : 34962
        },
        {
            "buffer" : 0,
            "byteLength" : 9264,
            "byteOffset" : 27792,
            "target" : 34962
        },
        {
            "buffer" : 0,
            "byteLength" : 8832,
            "byteOffset" : 37056,
            "target" : 34963
        }
    ],
    "buffers" : [
        {
            "byteLength" : 45888,
            "uri" : "data:application/octet-stream;base64,"
        }
    ]
}
