{"asset":{"generator":"Khronos glTF Spline I/O v0.0.1","version":"2.0"},"scenes":[{"nodes":[0]}],"nodes":[{"name":"","children":[1,2,3,4,5,6,7,8,9,10,11,12,13]},{"name":"Sphere","matrix":[0.3034369108222169,0,0.9528515315360887,0,0,1,0,0,-0.9528515315360887,0,0.3034369108222169,0,131.29052770388458,-45.565864564586846,93.72831881609648,1],"mesh":0},{"name":"Cylinder 5","matrix":[1,0,0,0,0,1,0,0,0,0,1,0,-50.153882580067375,-211.80692567579658,451.879447628105,1],"mesh":1},{"name":"Cylinder 4","matrix":[1,0,0,0,0,1,0,0,0,0,1,0,-150.12049867687492,-211.80692567579658,451.879447628105,1],"mesh":2},{"name":"Cylinder 3","matrix":[1,0,0,0,0,4.996338957238365,0,0,0,0,1,0,142.3076059517598,-154.8756595109719,277.30418960476703,1],"mesh":3},{"name":"Cylinder 2","matrix":[1,0,0,0,0,4.996338957238365,0,0,0,0,1,0,142.3076059517598,-154.8756595109719,64,1],"mesh":4},{"name":"Cylinder 3","matrix":[1,0,0,0,0,4.996338957238365,0,0,0,0,1,0,64,-154.8756595109719,277.30418960476703,1],"mesh":5},{"name":"Cylinder","matrix":[1,0,0,0,0,4.996338957238365,0,0,0,0,1,0,64,-154.8756595109719,64,1],"mesh":6},{"name":"Rectangle 4","matrix":[1,0,0,0,0,2.2204460492503417e-16,-1.000000000000013,0,0,1.000000000000013,2.2204460492503417e-16,0,103,-105.56586813247068,169.63416672209013,1],"mesh":7},{"name":"Directional Light","translation":[-860.2101942942973,556.0566984587967,-95.9133987492678],"rotation":[-0.6493683688966315,-0.3534635208168887,0.3219116934365896,0.5914026737824614],"extensions":{"KHR_lights_punctual":{"light":0}}},{"name":"Rectangle 3","matrix":[2.2204460492503244e-16,0,-1.000000000000005,0,0,1,0,0,1.000000000000005,0,2.2204460492503244e-16,0,178.2905177038847,-20,200.45568882453335,1],"mesh":8},{"name":"Rectangle 2","matrix":[1,0,0,0,0,2.2204460492503954e-16,1.0000000000000373,0,0,-1.0000000000000373,2.2204460492503954e-16,0,0,-198.7261647478216,200.8865865719426,1],"mesh":9},{"name":"Rectangle","matrix":[1,0,0,0,0,1,0,0,0,0,1,0,0,-20,0,1],"mesh":10},{"name":"Personal Camera","camera":0,"translation":[-709.5685590154485,68.3324034764433,314.02893595920074],"rotation":[-0.08064075901814181,-0.5852125567841555,-0.05864352915221381,0.8047262067658187]}],"cameras":[{"type":"orthographic","orthographic":{"xmag":1433,"ymag":787,"zfar":100000,"znear":-100000}}],"meshes":[{"primitives":[{"attributes":{"POSITION":1,"NORMAL":2,"TEXCOORD_0":3},"indices":0}]},{"primitives":[{"attributes":{"POSITION":5,"NORMAL":6,"TEXCOORD_0":7},"indices":4}]},{"primitives":[{"attributes":{"POSITION":9,"NORMAL":10,"TEXCOORD_0":11},"indices":8}]},{"primitives":[{"attributes":{"POSITION":13,"NORMAL":14,"TEXCOORD_0":15},"indices":12}]},{"primitives":[{"attributes":{"POSITION":17,"NORMAL":18,"TEXCOORD_0":19},"indices":16}]},{"primitives":[{"attributes":{"POSITION":21,"NORMAL":22,"TEXCOORD_0":23},"indices":20}]},{"primitives":[{"attributes":{"POSITION":25,"NORMAL":26,"TEXCOORD_0":27},"indices":24}]},{"primitives":[{"attributes":{"POSITION":29,"NORMAL":30,"TEXCOORD_0":31},"indices":28}]},{"primitives":[{"attributes":{"POSITION":33,"NORMAL":34,"TEXCOORD_0":35},"indices":32}]},{"primitives":[{"attributes":{"POSITION":37,"NORMAL":38,"TEXCOORD_0":39},"indices":36}]},{"primitives":[{"attributes":{"POSITION":41,"NORMAL":42,"TEXCOORD_0":43},"indices":40}]}],"buffers":[{"uri":"data:application/octet-stream;base64,","byteLength":183584},{"uri":"data:application/octet-stream;base64,","byteLength":67200},{"uri":"data:application/octet-stream;base64,","byteLength":67200},{"uri":"data:application/octet-stream;base64,","byteLength":13952},{"uri":"data:application/octet-stream;base64,","byteLength":13952},{"uri":"data:application/octet-stream;base64,","byteLength":13952},{"uri":"data:application/octet-stream;base64,","byteLength":13952},{"uri":"data:application/octet-stream;base64,","byteLength":149520},{"uri":"data:application/octet-stream;base64,","byteLength":59376},{"uri":"data:application/octet-stream;base64,","byteLength":59376},{"uri":"data:application/octet-stream;base64,","byteLength":59376}],"bufferViews":[{"buffer":0,"byteOffset":0,"byteLength":48384,"target":34963},{"buffer":0,"byteOffset":48384,"byteLength":50700,"target":34962},{"buffer":0,"byteOffset":99084,"byteLength":50700,"target":34962},{"buffer":0,"byteOffset":149784,"byteLength":33800,"target":34962},{"buffer":1,"byteOffset":0,"byteLength":17280,"target":34963},{"buffer":1,"byteOffset":17280,"byteLength":18720,"target":34962},{"buffer":1,"byteOffset":36000,"byteLength":18720,"target":34962},{"buffer":1,"byteOffset":54720,"byteLength":12480,"target":34962},{"buffer":2,"byteOffset":0,"byteLength":17280,"target":34963},{"buffer":2,"byteOffset":17280,"byteLength":18720,"target":34962},{"buffer":2,"byteOffset":36000,"byteLength":18720,"target":34962},{"buffer":2,"byteOffset":54720,"byteLength":12480,"target":34962},{"buffer":3,"byteOffset":0,"byteLength":1536,"target":34963},{"buffer":3,"byteOffset":1536,"byteLength":4656,"target":34962},{"buffer":3,"byteOffset":6192,"byteLength":4656,"target":34962},{"buffer":3,"byteOffset":10848,"byteLength":3104,"target":34962},{"buffer":4,"byteOffset":0,"byteLength":1536,"target":34963},{"buffer":4,"byteOffset":1536,"byteLength":4656,"target":34962},{"buffer":4,"byteOffset":6192,"byteLength":4656,"target":34962},{"buffer":4,"byteOffset":10848,"byteLength":3104,"target":34962},{"buffer":5,"byteOffset":0,"byteLength":1536,"target":34963},{"buffer":5,"byteOffset":1536,"byteLength":4656,"target":34962},{"buffer":5,"byteOffset":6192,"byteLength":4656,"target":34962},{"buffer":5,"byteOffset":10848,"byteLength":3104,"target":34962},{"buffer":6,"byteOffset":0,"byteLength":1536,"target":34963},{"buffer":6,"byteOffset":1536,"byteLength":4656,"target":34962},{"buffer":6,"byteOffset":6192,"byteLength":4656,"target":34962},{"buffer":6,"byteOffset":10848,"byteLength":3104,"target":34962},{"buffer":7,"byteOffset":0,"byteLength":23568,"target":34963},{"buffer":7,"byteOffset":23568,"byteLength":41984,"target":34962},{"buffer":7,"byteOffset":65552,"byteLength":41984,"target":34962},{"buffer":7,"byteOffset":107536,"byteLength":41984,"target":34962},{"buffer":8,"byteOffset":0,"byteLength":10992,"target":34963},{"buffer":8,"byteOffset":10992,"byteLength":16128,"target":34962},{"buffer":8,"byteOffset":27120,"byteLength":16128,"target":34962},{"buffer":8,"byteOffset":43248,"byteLength":16128,"target":34962},{"buffer":9,"byteOffset":0,"byteLength":10992,"target":34963},{"buffer":9,"byteOffset":10992,"byteLength":16128,"target":34962},{"buffer":9,"byteOffset":27120,"byteLength":16128,"target":34962},{"buffer":9,"byteOffset":43248,"byteLength":16128,"target":34962},{"buffer":10,"byteOffset":0,"byteLength":10992,"target":34963},{"buffer":10,"byteOffset":10992,"byteLength":16128,"target":34962},{"buffer":10,"byteOffset":27120,"byteLength":16128,"target":34962},{"buffer":10,"byteOffset":43248,"byteLength":16128,"target":34962}],"accessors":[{"bufferView":0,"byteOffset":0,"componentType":5123,"count":24192,"type":"SCALAR","min":[0],"max":[4224]},{"bufferView":1,"byteOffset":0,"componentType":5126,"count":4225,"type":"VEC3","min":[-47,-47,-47],"max":[47,47,47]},{"bufferView":2,"byteOffset":0,"componentType":5126,"count":4225,"type":"VEC3","min":[-1,-1,-1],"max":[1,1,1]},{"bufferView":3,"byteOffset":0,"componentType":5126,"count":4225,"type":"VEC2","min":[-0.0078125,0],"max":[1.0078125,1]},{"bufferView":4,"byteOffset":0,"componentType":5123,"count":8640,"type":"SCALAR","min":[0],"max":[1558]},{"bufferView":5,"byteOffset":0,"componentType":5126,"count":1560,"type":"VEC3","min":[-38.5,-9.414287567138672,-38.5],"max":[38.5,9.414287567138672,38.5]},{"bufferView":6,"byteOffset":0,"componentType":5126,"count":1560,"type":"VEC3","min":[-1,-1,-1],"max":[1,1,1]},{"bufferView":7,"byteOffset":0,"componentType":5126,"count":1560,"type":"VEC2","min":[0,0],"max":[1,1]},{"bufferView":8,"byteOffset":0,"componentType":5123,"count":8640,"type":"SCALAR","min":[0],"max":[1558]},{"bufferView":9,"byteOffset":0,"componentType":5126,"count":1560,"type":"VEC3","min":[-38.5,-9.414287567138672,-38.5],"max":[38.5,9.414287567138672,38.5]},{"bufferView":10,"byteOffset":0,"componentType":5126,"count":1560,"type":"VEC3","min":[-1,-1,-1],"max":[1,1,1]},{"bufferView":11,"byteOffset":0,"componentType":5126,"count":1560,"type":"VEC2","min":[0,0],"max":[1,1]},{"bufferView":12,"byteOffset":0,"componentType":5123,"count":768,"type":"SCALAR","min":[0],"max":[387]},{"bufferView":13,"byteOffset":0,"componentType":5126,"count":388,"type":"VEC3","min":[-11,-11,-11],"max":[11,11,11]},{"bufferView":14,"byteOffset":0,"componentType":5126,"count":388,"type":"VEC3","min":[-1,-1,-1],"max":[1,1,1]},{"bufferView":15,"byteOffset":0,"componentType":5126,"count":388,"type":"VEC2","min":[0,0],"max":[1,1]},{"bufferView":16,"byteOffset":0,"componentType":5123,"count":768,"type":"SCALAR","min":[0],"max":[387]},{"bufferView":17,"byteOffset":0,"componentType":5126,"count":388,"type":"VEC3","min":[-11,-11,-11],"max":[11,11,11]},{"bufferView":18,"byteOffset":0,"componentType":5126,"count":388,"type":"VEC3","min":[-1,-1,-1],"max":[1,1,1]},{"bufferView":19,"byteOffset":0,"componentType":5126,"count":388,"type":"VEC2","min":[0,0],"max":[1,1]},{"bufferView":20,"byteOffset":0,"componentType":5123,"count":768,"type":"SCALAR","min":[0],"max":[387]},{"bufferView":21,"byteOffset":0,"componentType":5126,"count":388,"type":"VEC3","min":[-11,-11,-11],"max":[11,11,11]},{"bufferView":22,"byteOffset":0,"componentType":5126,"count":388,"type":"VEC3","min":[-1,-1,-1],"max":[1,1,1]},{"bufferView":23,"byteOffset":0,"componentType":5126,"count":388,"type":"VEC2","min":[0,0],"max":[1,1]},{"bufferView":24,"byteOffset":0,"componentType":5123,"count":768,"type":"SCALAR","min":[0],"max":[387]},{"bufferView":25,"byteOffset":0,"componentType":5126,"count":388,"type":"VEC3","min":[-11,-11,-11],"max":[11,11,11]},{"bufferView":26,"byteOffset":0,"componentType":5126,"count":388,"type":"VEC3","min":[-1,-1,-1],"max":[1,1,1]},{"bufferView":27,"byteOffset":0,"componentType":5126,"count":388,"type":"VEC2","min":[0,0],"max":[1,1]},{"bufferView":28,"byteOffset":0,"componentType":5125,"count":5892,"type":"SCALAR","min":[0],"max":[1311]},{"bufferView":29,"byteOffset":0,"componentType":5126,"count":1312,"type":"VEC3","min":[-59,-130.63417053222656,0],"max":[59,130.63417053222656,13]},{"bufferView":30,"byteOffset":0,"componentType":5126,"count":1312,"type":"VEC3","min":[-1,-1,-1],"max":[1,1,1]},{"bufferView":31,"byteOffset":0,"componentType":5126,"count":1312,"type":"VEC2","min":[0,0],"max":[1,1]},{"bufferView":32,"byteOffset":0,"componentType":5125,"count":2748,"type":"SCALAR","min":[0],"max":[503]},{"bufferView":33,"byteOffset":0,"componentType":5126,"count":504,"type":"VEC3","min":[-200,-200,0],"max":[200,200,22]},{"bufferView":34,"byteOffset":0,"componentType":5126,"count":504,"type":"VEC3","min":[-1,-1,-1],"max":[1,1,1]},{"bufferView":35,"byteOffset":0,"componentType":5126,"count":504,"type":"VEC2","min":[0,0],"max":[1,1]},{"bufferView":36,"byteOffset":0,"componentType":5125,"count":2748,"type":"SCALAR","min":[0],"max":[503]},{"bufferView":37,"byteOffset":0,"componentType":5126,"count":504,"type":"VEC3","min":[-200,-200,0],"max":[200,200,22]},{"bufferView":38,"byteOffset":0,"componentType":5126,"count":504,"type":"VEC3","min":[-1,-1,-1],"max":[1,1,1]},{"bufferView":39,"byteOffset":0,"componentType":5126,"count":504,"type":"VEC2","min":[0,0],"max":[1,1]},{"bufferView":40,"byteOffset":0,"componentType":5125,"count":2748,"type":"SCALAR","min":[0],"max":[503]},{"bufferView":41,"byteOffset":0,"componentType":5126,"count":504,"type":"VEC3","min":[-200,-200,0],"max":[200,200,22]},{"bufferView":42,"byteOffset":0,"componentType":5126,"count":504,"type":"VEC3","min":[-1,-1,-1],"max":[1,1,1]},{"bufferView":43,"byteOffset":0,"componentType":5126,"count":504,"type":"VEC2","min":[0,0],"max":[1,1]}],"extensions":{"KHR_lights_punctual":{"lights":[{"type":"directional","name":"Directional Light","color":[1,1,1],"intensity":0.7}]}},"extensionsUsed":["KHR_lights_punctual"]}