{
    "asset" : {
        "generator" : "Khronos glTF Blender I/O v3.3.32",
        "version" : "2.0"
    },
    "scene" : 0,
    "scenes" : [
        {
            "name" : "Scene",
            "nodes" : [
                0,
                1
            ]
        }
    ],
    "nodes" : [
        {
            "name" : "C_2",
            "scale" : [
                1.0399718284606934,
                1.0399718284606934,
                1.0399718284606934
            ],
            "translation" : [
                2.406501054763794,
                0,
                0
            ]
        },
        {
            "mesh" : 0,
            "name" : "Object_38",
            "rotation" : [
                0.6933798789978027,
                0,
                0,
                0.720572292804718
            ],
            "translation" : [
                0.06433037668466568,
                -0.43720632791519165,
                -0.012132823467254639
            ]
        }
    ],
    "materials" : [
        {
            "doubleSided" : true,
            "name" : "Dark_Blue_Bubble_Letter_Material",
            "pbrMetallicRoughness" : {
                "baseColorFactor" : [
                    0,
                    0.001089639961719513,
                    0.22024700045585632,
                    1
                ],
                "metallicFactor" : 0,
                "roughnessFactor" : 0.20000000298023224
            }
        }
    ],
    "meshes" : [
        {
            "name" : "Object_17",
            "primitives" : [
                {
                    "attributes" : {
                        "POSITION" : 0,
                        "NORMAL" : 1,
                        "TEXCOORD_0" : 2
                    },
                    "indices" : 3,
                    "material" : 0
                }
            ]
        }
    ],
    "accessors" : [
        {
            "bufferView" : 0,
            "componentType" : 5126,
            "count" : 2368,
            "max" : [
                0.29825159907341003,
                0.22191543877124786,
                0.0005554556846618652
            ],
            "min" : [
                -0.3660943806171417,
                -0.2235216498374939,
                -0.8925756812095642
            ],
            "type" : "VEC3"
        },
        {
            "bufferView" : 1,
            "componentType" : 5126,
            "count" : 2368,
            "type" : "VEC3"
        },
        {
            "bufferView" : 2,
            "componentType" : 5126,
            "count" : 2368,
            "type" : "VEC2"
        },
        {
            "bufferView" : 3,
            "componentType" : 5123,
            "count" : 8688,
            "type" : "SCALAR"
        }
    ],
    "bufferViews" : [
        {
            "buffer" : 0,
            "byteLength" : 28416,
            "byteOffset" : 0,
            "target" : 34962
        },
        {
            "buffer" : 0,
            "byteLength" : 28416,
            "byteOffset" : 28416,
            "target" : 34962
        },
        {
            "buffer" : 0,
            "byteLength" : 18944,
            "byteOffset" : 56832,
            "target" : 34962
        },
        {
            "buffer" : 0,
            "byteLength" : 17376,
            "byteOffset" : 75776,
            "target" : 34963
        }
    ],
    "buffers" : [
        {
            "byteLength" : 93152,
            "uri" : "data:application/octet-stream;base64,"
        }
    ]
}
