{
    "asset" : {
        "generator" : "Khronos glTF Blender I/O v3.3.32",
        "version" : "2.0"
    },
    "scene" : 0,
    "scenes" : [
        {
            "name" : "Scene",
            "nodes" : [
                0
            ]
        }
    ],
    "nodes" : [
        {
            "mesh" : 0,
            "name" : "Object_30",
            "rotation" : [
                0.7061470150947571,
                0,
                0,
                0.7080653309822083
            ],
            "scale" : [
                1.1080199480056763,
                1.1080200672149658,
                1.1080200672149658
            ],
            "translation" : [
                0.00025463104248046875,
                -0.4266301393508911,
                0.02303723618388176
            ]
        }
    ],
    "materials" : [
        {
            "doubleSided" : true,
            "name" : "Light_Purple_Bubble_Letter_Material",
            "pbrMetallicRoughness" : {
                "baseColorFactor" : [
                    0.4734640121459961,
                    0.1983650028705597,
                    0.800000011920929,
                    1
                ],
                "metallicFactor" : 0,
                "roughnessFactor" : 0.20000000298023224
            }
        }
    ],
    "meshes" : [
        {
            "name" : "Object_13",
            "primitives" : [
                {
                    "attributes" : {
                        "POSITION" : 0,
                        "NORMAL" : 1,
                        "TEXCOORD_0" : 2
                    },
                    "indices" : 3,
                    "material" : 0
                }
            ]
        }
    ],
    "accessors" : [
        {
            "bufferView" : 0,
            "componentType" : 5126,
            "count" : 1182,
            "max" : [
                0.38929682970046997,
                0.24030321836471558,
                -0.007008761167526245
            ],
            "min" : [
                -0.433861643075943,
                -0.240274578332901,
                -0.9006232023239136
            ],
            "type" : "VEC3"
        },
        {
            "bufferView" : 1,
            "componentType" : 5126,
            "count" : 1182,
            "type" : "VEC3"
        },
        {
            "bufferView" : 2,
            "componentType" : 5126,
            "count" : 1182,
            "type" : "VEC2"
        },
        {
            "bufferView" : 3,
            "componentType" : 5123,
            "count" : 2928,
            "type" : "SCALAR"
        }
    ],
    "bufferViews" : [
        {
            "buffer" : 0,
            "byteLength" : 14184,
            "byteOffset" : 0,
            "target" : 34962
        },
        {
            "buffer" : 0,
            "byteLength" : 14184,
            "byteOffset" : 14184,
            "target" : 34962
        },
        {
            "buffer" : 0,
            "byteLength" : 9456,
            "byteOffset" : 28368,
            "target" : 34962
        },
        {
            "buffer" : 0,
            "byteLength" : 5856,
            "byteOffset" : 37824,
            "target" : 34963
        }
    ],
    "buffers" : [
        {
            "byteLength" : 43680,
            "uri" : "data:application/octet-stream;base64,"
        }
    ]
}
