{
    "asset" : {
        "generator" : "Khronos glTF Blender I/O v3.3.32",
        "version" : "2.0"
    },
    "scene" : 0,
    "scenes" : [
        {
            "name" : "Scene",
            "nodes" : [
                0,
                1
            ]
        }
    ],
    "nodes" : [
        {
            "name" : "G_7",
            "rotation" : [
                0.7061469554901123,
                0,
                0,
                0.7080653309822083
            ],
            "scale" : [
                1.0399718284606934,
                1.039971947669983,
                1.039971947669983
            ],
            "translation" : [
                0.016413211822509766,
                -0.42661625146865845,
                0.028150130063295364
            ]
        },
        {
            "mesh" : 0,
            "name" : "Object_40",
            "rotation" : [
                0.7061470150947571,
                0,
                0,
                0.7080653309822083
            ],
            "scale" : [
                0.9282338619232178,
                0.9282339215278625,
                0.9282339215278625
            ],
            "translation" : [
                0.010094642639160156,
                -0.4266429543495178,
                0.018310248851776123
            ]
        }
    ],
    "materials" : [
        {
            "doubleSided" : true,
            "name" : "Dark_Green_Bubble_Letter_Material",
            "pbrMetallicRoughness" : {
                "baseColorFactor" : [
                    0.0031845199409872293,
                    0.2810089886188507,
                    0,
                    1
                ],
                "metallicFactor" : 0,
                "roughnessFactor" : 0.20000000298023224
            }
        }
    ],
    "meshes" : [
        {
            "name" : "Object_18",
            "primitives" : [
                {
                    "attributes" : {
                        "POSITION" : 0,
                        "NORMAL" : 1,
                        "TEXCOORD_0" : 2
                    },
                    "indices" : 3,
                    "material" : 0
                }
            ]
        }
    ],
    "accessors" : [
        {
            "bufferView" : 0,
            "componentType" : 5126,
            "count" : 2600,
            "max" : [
                0.374761164188385,
                0.24266983568668365,
                -0.004427313804626465
            ],
            "min" : [
                -0.40601789951324463,
                -0.237335205078125,
                -1.0372416973114014
            ],
            "type" : "VEC3"
        },
        {
            "bufferView" : 1,
            "componentType" : 5126,
            "count" : 2600,
            "type" : "VEC3"
        },
        {
            "bufferView" : 2,
            "componentType" : 5126,
            "count" : 2600,
            "type" : "VEC2"
        },
        {
            "bufferView" : 3,
            "componentType" : 5123,
            "count" : 7200,
            "type" : "SCALAR"
        }
    ],
    "bufferViews" : [
        {
            "buffer" : 0,
            "byteLength" : 31200,
            "byteOffset" : 0,
            "target" : 34962
        },
        {
            "buffer" : 0,
            "byteLength" : 31200,
            "byteOffset" : 31200,
            "target" : 34962
        },
        {
            "buffer" : 0,
            "byteLength" : 20800,
            "byteOffset" : 62400,
            "target" : 34962
        },
        {
            "buffer" : 0,
            "byteLength" : 14400,
            "byteOffset" : 83200,
            "target" : 34963
        }
    ],
    "buffers" : [
        {
            "byteLength" : 97600,
            "uri" : "data:application/octet-stream;base64,"
        }
    ]
}
