{
    "asset" : {
        "generator" : "Khronos glTF Blender I/O v3.3.32",
        "version" : "2.0"
    },
    "scene" : 0,
    "scenes" : [
        {
            "name" : "Scene",
            "nodes" : [
                1
            ]
        }
    ],
    "nodes" : [
        {
            "mesh" : 0,
            "name" : "Object_12",
            "translation" : [
                -0.8912515044212341,
                0,
                0
            ]
        },
        {
            "children" : [
                0
            ],
            "name" : "H_4",
            "rotation" : [
                0.7061470150947571,
                0,
                0,
                0.7080653309822083
            ],
            "translation" : [
                0.8958711624145508,
                -0.42662960290908813,
                0.023230187594890594
            ]
        }
    ],
    "materials" : [
        {
            "doubleSided" : true,
            "name" : "Grey_Bubble_Letter_Material",
            "pbrMetallicRoughness" : {
                "baseColorFactor" : [
                    0.14731299877166748,
                    0.14731299877166748,
                    0.14731299877166748,
                    1
                ],
                "metallicFactor" : 0,
                "roughnessFactor" : 0.20000000298023224
            }
        }
    ],
    "meshes" : [
        {
            "name" : "Object_4",
            "primitives" : [
                {
                    "attributes" : {
                        "POSITION" : 0,
                        "NORMAL" : 1,
                        "TEXCOORD_0" : 2
                    },
                    "indices" : 3,
                    "material" : 0
                }
            ]
        }
    ],
    "accessors" : [
        {
            "bufferView" : 0,
            "componentType" : 5126,
            "count" : 908,
            "max" : [
                0.40030017495155334,
                0.24021729826927185,
                -0.0021684409584850073
            ],
            "min" : [
                -0.3874364197254181,
                -0.24021732807159424,
                -0.9791746139526367
            ],
            "type" : "VEC3"
        },
        {
            "bufferView" : 1,
            "componentType" : 5126,
            "count" : 908,
            "type" : "VEC3"
        },
        {
            "bufferView" : 2,
            "componentType" : 5126,
            "count" : 908,
            "type" : "VEC2"
        },
        {
            "bufferView" : 3,
            "componentType" : 5123,
            "count" : 3408,
            "type" : "SCALAR"
        }
    ],
    "bufferViews" : [
        {
            "buffer" : 0,
            "byteLength" : 10896,
            "byteOffset" : 0,
            "target" : 34962
        },
        {
            "buffer" : 0,
            "byteLength" : 10896,
            "byteOffset" : 10896,
            "target" : 34962
        },
        {
            "buffer" : 0,
            "byteLength" : 7264,
            "byteOffset" : 21792,
            "target" : 34962
        },
        {
            "buffer" : 0,
            "byteLength" : 6816,
            "byteOffset" : 29056,
            "target" : 34963
        }
    ],
    "buffers" : [
        {
            "byteLength" : 35872,
            "uri" : "data:application/octet-stream;base64,"
        }
    ]
}
