{
    "asset" : {
        "generator" : "Khronos glTF Blender I/O v3.3.32",
        "version" : "2.0"
    },
    "scene" : 0,
    "scenes" : [
        {
            "name" : "Scene",
            "nodes" : [
                8
            ]
        }
    ],
    "nodes" : [
        {
            "name" : "A_0",
            "rotation" : [
                0,
                -0.01027228869497776,
                0,
                0.9999472498893738
            ]
        },
        {
            "name" : "B_1",
            "rotation" : [
                0,
                -0.014677568338811398,
                0,
                0.9998922944068909
            ],
            "translation" : [
                0.9450557231903076,
                0,
                0
            ]
        },
        {
            "name" : "C_2",
            "scale" : [
                1.0399718284606934,
                1.0399718284606934,
                1.0399718284606934
            ],
            "translation" : [
                1.871013879776001,
                0,
                0
            ]
        },
        {
            "name" : "D_5",
            "translation" : [
                2.4804325103759766,
                0,
                0
            ]
        },
        {
            "mesh" : 0,
            "name" : "Object_10",
            "rotation" : [
                0.6941149830818176,
                0,
                0,
                0.7198641300201416
            ],
            "translation" : [
                -3.42630672454834,
                -0.389935165643692,
                0
            ]
        },
        {
            "children" : [
                4
            ],
            "name" : "E_3",
            "translation" : [
                3.406813621520996,
                0,
                0
            ]
        },
        {
            "children" : [
                0,
                1,
                2,
                3,
                5
            ],
            "name" : "GLTF_SceneRootNode",
            "rotation" : [
                0.7071068286895752,
                0,
                0,
                0.7071067094802856
            ]
        },
        {
            "children" : [
                6
            ],
            "name" : "root"
        },
        {
            "children" : [
                7
            ],
            "name" : "Sketchfab_model",
            "rotation" : [
                -0.7071068286895752,
                0,
                0,
                0.7071067094802856
            ]
        }
    ],
    "materials" : [
        {
            "doubleSided" : true,
            "name" : "Brown_Bubble_Letter_Material",
            "pbrMetallicRoughness" : {
                "baseColorFactor" : [
                    0.39311400055885315,
                    0.11196000128984451,
                    0.009522849693894386,
                    1
                ],
                "metallicFactor" : 0,
                "roughnessFactor" : 0.20000000298023224
            }
        }
    ],
    "meshes" : [
        {
            "name" : "Object_3",
            "primitives" : [
                {
                    "attributes" : {
                        "POSITION" : 0,
                        "NORMAL" : 1,
                        "TEXCOORD_0" : 2
                    },
                    "indices" : 3,
                    "material" : 0
                }
            ]
        }
    ],
    "accessors" : [
        {
            "bufferView" : 0,
            "componentType" : 5126,
            "count" : 520,
            "max" : [
                0.33116355538368225,
                0.22106122970581055,
                -0.0075467852875590324
            ],
            "min" : [
                -0.349971204996109,
                -0.21122130751609802,
                -0.9656093120574951
            ],
            "type" : "VEC3"
        },
        {
            "bufferView" : 1,
            "componentType" : 5126,
            "count" : 520,
            "type" : "VEC3"
        },
        {
            "bufferView" : 2,
            "componentType" : 5126,
            "count" : 520,
            "type" : "VEC2"
        },
        {
            "bufferView" : 3,
            "componentType" : 5123,
            "count" : 2016,
            "type" : "SCALAR"
        }
    ],
    "bufferViews" : [
        {
            "buffer" : 0,
            "byteLength" : 6240,
            "byteOffset" : 0,
            "target" : 34962
        },
        {
            "buffer" : 0,
            "byteLength" : 6240,
            "byteOffset" : 6240,
            "target" : 34962
        },
        {
            "buffer" : 0,
            "byteLength" : 4160,
            "byteOffset" : 12480,
            "target" : 34962
        },
        {
            "buffer" : 0,
            "byteLength" : 4032,
            "byteOffset" : 16640,
            "target" : 34963
        }
    ],
    "buffers" : [
        {
            "byteLength" : 20672,
            "uri" : "data:application/octet-stream;base64,"
        }
    ]
}
