{
    "asset" : {
        "generator" : "Khronos glTF Blender I/O v3.3.32",
        "version" : "2.0"
    },
    "scene" : 0,
    "scenes" : [
        {
            "name" : "Scene",
            "nodes" : [
                0,
                1
            ]
        }
    ],
    "nodes" : [
        {
            "name" : "G_7",
            "rotation" : [
                0.7061469554901123,
                0,
                0,
                0.7080653309822083
            ],
            "scale" : [
                1.0399718284606934,
                1.039971947669983,
                1.039971947669983
            ],
            "translation" : [
                0.016413211822509766,
                -0.42661625146865845,
                0.028150130063295364
            ]
        },
        {
            "mesh" : 0,
            "name" : "Object_32",
            "rotation" : [
                0.7060708403587341,
                -0.01039267610758543,
                -0.01036452129483223,
                0.7079890966415405
            ],
            "scale" : [
                1.0479153394699097,
                1.0479156970977783,
                1.0479155778884888
            ],
            "translation" : [
                -0.09709596633911133,
                -0.42664074897766113,
                0.019127842038869858
            ]
        }
    ],
    "materials" : [
        {
            "doubleSided" : true,
            "name" : "Light_Grey_Bubble_Letter_Material",
            "pbrMetallicRoughness" : {
                "baseColorFactor" : [
                    0.3031969964504242,
                    0.3031969964504242,
                    0.3031969964504242,
                    1
                ],
                "metallicFactor" : 0,
                "roughnessFactor" : 0.20000000298023224
            }
        }
    ],
    "meshes" : [
        {
            "name" : "Object_14",
            "primitives" : [
                {
                    "attributes" : {
                        "POSITION" : 0,
                        "NORMAL" : 1,
                        "TEXCOORD_0" : 2
                    },
                    "indices" : 3,
                    "material" : 0
                }
            ]
        }
    ],
    "accessors" : [
        {
            "bufferView" : 0,
            "componentType" : 5126,
            "count" : 1793,
            "max" : [
                0.5098638534545898,
                0.24196049571037292,
                -0.005923211574554443
            ],
            "min" : [
                -0.21880802512168884,
                -0.24248641729354858,
                -0.9786854982376099
            ],
            "type" : "VEC3"
        },
        {
            "bufferView" : 1,
            "componentType" : 5126,
            "count" : 1793,
            "type" : "VEC3"
        },
        {
            "bufferView" : 2,
            "componentType" : 5126,
            "count" : 1793,
            "type" : "VEC2"
        },
        {
            "bufferView" : 3,
            "componentType" : 5123,
            "count" : 7152,
            "type" : "SCALAR"
        }
    ],
    "bufferViews" : [
        {
            "buffer" : 0,
            "byteLength" : 21516,
            "byteOffset" : 0,
            "target" : 34962
        },
        {
            "buffer" : 0,
            "byteLength" : 21516,
            "byteOffset" : 21516,
            "target" : 34962
        },
        {
            "buffer" : 0,
            "byteLength" : 14344,
            "byteOffset" : 43032,
            "target" : 34962
        },
        {
            "buffer" : 0,
            "byteLength" : 14304,
            "byteOffset" : 57376,
            "target" : 34963
        }
    ],
    "buffers" : [
        {
            "byteLength" : 71680,
            "uri" : "data:application/octet-stream;base64,"
        }
    ]
}
