{
    "asset" : {
        "generator" : "Khronos glTF Blender I/O v3.3.32",
        "version" : "2.0"
    },
    "scene" : 0,
    "scenes" : [
        {
            "name" : "Scene",
            "nodes" : [
                2
            ]
        }
    ],
    "nodes" : [
        {
            "mesh" : 0,
            "name" : "Object_16"
        },
        {
            "children" : [
                0
            ],
            "name" : "Baloon Text.obj.cleaner.materialmerger.gles"
        },
        {
            "children" : [
                1
            ],
            "name" : "Sketchfab_model",
            "rotation" : [
                -0.7071068286895752,
                0,
                0,
                0.7071067094802856
            ]
        }
    ],
    "materials" : [
        {
            "doubleSided" : true,
            "name" : "Pink",
            "pbrMetallicRoughness" : {
                "baseColorFactor" : [
                    0.6596117615699768,
                    0.45641276240348816,
                    0.07589159160852432,
                    1
                ],
                "roughnessFactor" : 0.3283514380455017
            }
        }
    ],
    "meshes" : [
        {
            "name" : "Object_14",
            "primitives" : [
                {
                    "attributes" : {
                        "POSITION" : 0,
                        "NORMAL" : 1
                    },
                    "indices" : 2,
                    "material" : 0
                }
            ]
        }
    ],
    "accessors" : [
        {
            "bufferView" : 0,
            "componentType" : 5126,
            "count" : 14622,
            "max" : [
                0.2855795621871948,
                0.0800381675362587,
                0.29038670659065247
            ],
            "min" : [
                -0.202305406332016,
                -0.0757378339767456,
                -0.3819562792778015
            ],
            "type" : "VEC3"
        },
        {
            "bufferView" : 1,
            "componentType" : 5126,
            "count" : 14622,
            "type" : "VEC3"
        },
        {
            "bufferView" : 2,
            "componentType" : 5123,
            "count" : 21864,
            "type" : "SCALAR"
        }
    ],
    "bufferViews" : [
        {
            "buffer" : 0,
            "byteLength" : 175464,
            "byteOffset" : 0,
            "target" : 34962
        },
        {
            "buffer" : 0,
            "byteLength" : 175464,
            "byteOffset" : 175464,
            "target" : 34962
        },
        {
            "buffer" : 0,
            "byteLength" : 43728,
            "byteOffset" : 350928,
            "target" : 34963
        }
    ],
    "buffers" : [
        {
            "byteLength" : 394656,
            "uri" : "data:application/octet-stream;base64,"
        }
    ]
}
